<svg xmlns="http://www.w3.org/2000/svg" width="24" height="24" viewBox="0 0 24 24"><defs><style>.a{fill:#e31c34;}</style></defs><g transform="translate(2 4)"><path class="a" d="M9.389,15.094c-1.573,0-3.165-.069-4.733-.206l-1.51-.13A3.13,3.13,0,0,1,.315,12.1,33.554,33.554,0,0,1,.193,3.9c.034-.286.074-.581.122-.9A3.13,3.13,0,0,1,3.146.337L4.657.205C6.224.069,7.816,0,9.389,0s3.165.069,4.733.205l1.51.131A3.13,3.13,0,0,1,18.464,3c.045.3.086.6.122.9a33.5,33.5,0,0,1-.122,8.2,3.13,3.13,0,0,1-2.831,2.66l-1.51.13C12.555,15.024,10.962,15.094,9.389,15.094ZM1.58,5.067A29.151,29.151,0,0,0,1.8,11.875a1.633,1.633,0,0,0,1.478,1.388l1.51.131c1.524.133,3.073.2,4.6.2s3.078-.067,4.6-.2l1.51-.131a1.633,1.633,0,0,0,1.478-1.388A29.1,29.1,0,0,0,17.2,5.067L12.182,7.853a5.751,5.751,0,0,1-5.585,0ZM9.389,1.5c-1.53,0-3.078.067-4.6.2l-1.51.13A1.633,1.633,0,0,0,1.8,3.219c-.012.077-.023.156-.034.233l5.561,3.09a4.252,4.252,0,0,0,4.128,0l5.56-3.09c-.011-.077-.023-.156-.034-.233A1.633,1.633,0,0,0,15.5,1.831l-1.51-.13C12.467,1.568,10.919,1.5,9.389,1.5Z" transform="translate(0.611 0.453)"/></g></svg>