<svg xmlns="http://www.w3.org/2000/svg" width="24" height="24" viewBox="0 0 24 24"><defs><style>.a{fill:#979797;}</style></defs><path class="a" d="M21.429,2.25H2.571A2.571,2.571,0,0,0,0,4.821V23.679A2.571,2.571,0,0,0,2.571,26.25H9.924V18.091H6.549V14.25H9.924V11.323c0-3.329,1.982-5.169,5.018-5.169a20.446,20.446,0,0,1,2.974.259V9.681H16.241a1.92,1.92,0,0,0-2.165,2.075V14.25h3.685l-.589,3.841h-3.1V26.25h7.353A2.571,2.571,0,0,0,24,23.679V4.821A2.571,2.571,0,0,0,21.429,2.25Z" transform="translate(0 -2.25)"/></svg>