<svg xmlns="http://www.w3.org/2000/svg" width="24" height="24" viewBox="0 0 24 24"><defs><style>.a{fill:#e31c34;}</style></defs><g transform="translate(3 1)"><path class="a" d="M4.75,9.5A4.75,4.75,0,1,1,9.5,4.75,4.756,4.756,0,0,1,4.75,9.5Zm0-8A3.25,3.25,0,1,0,8,4.75,3.254,3.254,0,0,0,4.75,1.5Z" transform="translate(4.25 4.25)"/><path class="a" d="M8.506,20.667a2.178,2.178,0,0,1-1.693-.8L2.02,14a8.9,8.9,0,0,1-1.989-6.4A8.287,8.287,0,0,1,8.29,0h.432a8.287,8.287,0,0,1,8.259,7.607A8.9,8.9,0,0,1,14.992,14L10.2,19.865A2.178,2.178,0,0,1,8.506,20.667ZM8.29,1.5A6.787,6.787,0,0,0,1.526,7.73a7.4,7.4,0,0,0,1.656,5.323l4.793,5.863a.688.688,0,0,0,1.064,0l4.792-5.863A7.4,7.4,0,0,0,15.486,7.73,6.787,6.787,0,0,0,8.722,1.5Z" transform="translate(0.494 0.25)"/></g></svg>