<svg xmlns="http://www.w3.org/2000/svg" width="24" height="24" viewBox="0 0 24 24"><defs><style>.a{fill:#e31c34;}</style></defs><g transform="translate(3 3)"><path class="a" d="M12.868,17.5a3.723,3.723,0,0,1-1.524-.325l-.758-.338A18.67,18.67,0,0,1,.892,7.426L.337,6.2A3.762,3.762,0,0,1,1.555,1.611L3.329.331a1.749,1.749,0,0,1,2.386.32L7.51,2.876a1.75,1.75,0,0,1-.319,2.5l-.67.5A11.822,11.822,0,0,0,11.638,11l.5-.67a1.75,1.75,0,0,1,2.5-.32L16.864,11.8a1.75,1.75,0,0,1,.319,2.387l-1.274,1.764A3.763,3.763,0,0,1,12.868,17.5ZM4.353,1.5a.25.25,0,0,0-.146.047L2.434,2.828A2.255,2.255,0,0,0,1.7,5.583L2.255,6.8a17.179,17.179,0,0,0,8.922,8.663l.013.005.764.34a2.234,2.234,0,0,0,.915.2,2.257,2.257,0,0,0,1.824-.932l1.274-1.764a.25.25,0,0,0-.046-.341L13.7,11.173a.249.249,0,0,0-.357.046l-.866,1.168a.75.75,0,0,1-.913.237,13.368,13.368,0,0,1-6.67-6.67.754.754,0,0,1,.237-.912L6.3,4.176a.251.251,0,0,0,.045-.358L4.548,1.593A.25.25,0,0,0,4.353,1.5Z" transform="translate(0.584 0.055)"/></g></svg>